
<svg version="1.1" id="Layer_1" xmlns="http://www.w3.org/2000/svg" xmlns:xlink="http://www.w3.org/1999/xlink" x="0px" y="0px" viewBox="0 0 236.6514 242.9092" enable-background="new 0 0 236.6514 242.9092" xml:space="preserve">
<g>
<rect x="71.5381" y="193.834" width="39.7813" height="4.666" id="id_101" style="fill: rgb(255, 255, 255);"></rect>
<rect x="216.6533" y="193.834" width="19.9981" height="4.666" id="id_102" style="fill: rgb(255, 255, 255);"></rect>
<path d="M34.3604,62.459l9.123,30.7812c0,0,0.1914,0.6646,0.3906,1.5181c0.1993-0.8535,0.3907-1.5181,0.3907-1.5181l9.123-30.7812
		c-2.7568-0.419-6.0693-0.7696-9.5156-0.7793C40.4258,61.6899,37.1182,62.0405,34.3604,62.459z" id="id_103" style="fill: rgb(255, 255, 255);"></path>
<path d="M5.7881,137.5503l1.9639,0.6733l-7.2119,37.124h21.666v56.5293c0,5.5235,4.4765,10,10,10c5.5215,0,10-4.4765,10-10
		v-56.5293h3.334v56.5293c0,5.5235,4.4765,10,10,10c5.5195,0,10-4.4765,10-10v-56.5293h21.666L69.7803,85.6543
		c0.1582,0.1953,0.3145,0.375,0.4746,0.5801c6.7168,8.5839,14.7676,25.1523,18.8809,56.3769
		c0.4316,3.2695,3.2246,5.6524,6.4375,5.6524c0.2832,0,0.5703-0.0196,0.8574-0.0567c3.5586-0.4707,6.0644-3.7363,5.5957-7.2949
		c-4.6113-34.9375-14.0957-54.1192-23.2383-64.7734c-8.4336-9.8711-16.5469-12.0137-18.7168-12.3614
		c-0.333-0.082-0.832-0.2026-1.4609-0.3432l-0.3828,0.0776l3.6035,6.002c0,0-12.836,22.582-16.4375,27.4394
		c-0.5176,0.6982-0.9063,1.1118-1.1983,1.3213c-0.0693,0.1274-0.1738,0.1855-0.3213,0.1572
		c-0.1474,0.0283-0.2519-0.0298-0.3212-0.1572c-0.292-0.2095-0.6807-0.6231-1.1983-1.3213
		C38.753,92.0957,25.917,69.5137,25.917,69.5137l3.6035-6.002l-0.3838-0.0776c-1.1523,0.2578-1.8652,0.4463-1.9482,0.4624
		c-0.3496,0.1093-6.4141,1.6347-12.9512,5.9179c-3.2597,2.1543-6.6758,5.0352-9.3828,8.9825
		c-2.7051,3.9238-4.6035,9.0195-4.584,14.8222c0,0.8496,0.0391,1.7031,0.1192,2.5625c0.001,0.0088,0.0029,0.0176,0.0039,0.0264
		c0.3447,3.6562,1.3486,7.4526,3.0976,11.436c0.1534,0.3487,0.3213,0.7007,0.4864,1.0523
		c2.9091,6.2119,7.6123,12.8794,14.4804,20.1924c1.2793,1.3593,3.0059,2.0449,4.7364,2.0449c1.5976,0,3.1972-0.584,4.4531-1.7637
		c2.6113-2.4609,2.7383-6.5762,0.2793-9.1895l-0.002-0.0019c-10.6181-11.2554-14.1435-19.5894-14.5869-24.9282
		c0-0.0098,0-0.0191-0.001-0.0288c-0.0449-0.4942-0.0664-0.961-0.0664-1.4024c0.0196-3.0762,0.8848-5.3496,2.3184-7.4863
		c0.7851-1.1719,1.7949-2.2637,2.916-3.2578l-2.7861,14.3437c0.5254,2.2183,1.6592,5.23,3.9697,9.0318l2.9502-8.6089l5.9678,2.0449
		l-8.1338,7.8071c0.5215,0.8072,1.0859,1.6397,1.7158,2.5122l11.0703-10.625l19.8408,20.6709L24.084,147.9018L4.2422,127.23
		l5.5918-5.3667c-0.625-0.816-1.2246-1.627-1.7988-2.4327l-3.375,3.2398L0,127.1426l3.1524,3.2841l3.7422,3.8975L5.7881,137.5503z
		 M49.7461,106.9316l-1.3379,3.8999l-6.2324-6.4946L49.7461,106.9316z M36.7041,144.9761l-3.8593-1.3228l6.4277-6.1704
		L36.7041,144.9761z" id="id_104" style="fill: rgb(255, 255, 255);"></path>
<path d="M33.9219,54.7446c0.9883,0.5151,2.0293,0.9556,3.1143,1.3179c0.6396,0.2138,1.2929,0.4028,1.9628,0.5586
		c4.0293,0.938,8.0567,0.6728,11.709-0.5562c1.0752-0.3618,2.1172-0.8095,3.1182-1.3335c1.8838-0.9853,3.6172-2.2456,5.1387-3.7436
		c2.8027-2.7583,4.8847-6.314,5.8427-10.4273C67.499,28.998,60.3096,17.4433,48.749,14.75
		c-11.5625-2.6914-23.1171,4.5-25.8105,16.0605c-1.7588,7.5528,0.7002,15.1021,5.8408,20.1807
		C30.2783,52.4726,32.0039,53.7451,33.9219,54.7446z" id="id_105" style="fill: rgb(255, 255, 255);"></path>
<path d="M121.291,66.9746c1.3663,0.1977,2.6348-0.749,2.834-2.1152c0-0.0044,0.1309-0.9092,0.4395-2.5674
		c1.0693-5.8033,4.2832-20.4683,10.8847-33.4414c3.2911-6.4888,7.4268-12.5318,12.4258-16.8609
		c5.0157-4.3305,10.7832-6.98,17.7774-6.9897c7.9804,0.0141,14.4023,3.4682,19.8652,8.9477
		c8.166,8.2007,13.7051,20.9781,17.0557,31.6856c1.6826,5.3501,2.8388,10.1802,3.5703,13.6582
		c0.3652,1.7402,0.625,3.1426,0.7929,4.1055c0.167,0.9609,0.2393,1.4604,0.2393,1.4624c0.1807,1.2446,1.25,2.1416,2.4727,2.1416
		c0.1201,0,0.2402-0.0088,0.3623-0.0264c1.3642-0.1997,2.3115-1.4683,2.1142-2.8345c-0.0224-0.1181-2.2793-15.7641-9.0508-31.6235
		c-3.3935-7.9292-7.9121-15.9361-14.0078-22.0908C182.9981,4.2807,175.169-0.0142,165.6524,0
		c-9.5196-0.0142-17.3487,4.2807-23.418,10.4258c-18.1328,18.4668-22.9512,53.5185-23.0566,53.7143
		C118.9776,65.5063,119.9239,66.7749,121.291,66.9746z" id="id_106" style="fill: rgb(255, 255, 255);"></path>
<circle cx="165.6514" cy="33" r="22.5" id="id_107" style="fill: rgb(255, 255, 255);"></circle>
<path d="M120.7647,234.3711c2.2168,0,4.2168-0.8477,5.6093-2.1953c1.3926,1.3476,3.3926,2.1953,5.6114,2.1953
		c2.2187,0,4.2187-0.8477,5.6113-2.1953c1.3701,1.3261,3.3301,2.164,5.5068,2.1904c0.7071,4.8306,4.8545,8.543,9.8819,8.543
		c5.1816,0,9.4443-3.9424,9.9492-8.9927c0.8447,0.2886,1.7588,0.4546,2.7168,0.4546c0.2637,0,0.5244-0.0137,0.7803-0.0371
		c0.6933,4.8466,4.8496,8.5752,9.8877,8.5752c5.0957,0,9.2978-3.8184,9.913-8.751c0.5977,0.1343,1.2188,0.2129,1.8624,0.2129
		c2.2207,0,4.2207-0.8477,5.6113-2.1953c1.3926,1.3476,3.3926,2.1953,5.6133,2.1953c2.2168,0,4.2168-0.8477,5.6093-2.1953
		c1.3907,1.3476,3.3926,2.1953,5.6133,2.1953c4.1934,0,7.6094-3.0274,7.6094-6.75v-0.2979l-0.0879-0.2861l-35.3301-115.6934
		l8.4483-31.8213c0.4472,0.5411,0.8476,1.106,1.1884,1.7022c2.2666,3.8642,4.2315,11.6797,5.3106,21.6694
		c1.124,10.0117,1.5478,22.2666,1.5459,35.6055c0,3.0376,2.4629,5.5005,5.5,5.5005s5.5-2.4629,5.5-5.5005
		c-0.002-13.5767-0.419-26.1528-1.6133-36.8301c-1.2363-10.6987-3.0625-19.4263-6.6885-25.895
		c-2.4033-4.208-5.9218-7.2339-9.6142-9.395c-11.1192-6.3731-24.3164-6.3028-26.4649-6.3809
		c-0.0967-0.001-0.1748-0.0005-0.2363,0.0005c-0.043,0-0.0937-0.0005-0.1533-0.0005c-1.4199,0.0078-7.791,0.0801-15.1406,1.9155
		c-3.6768,0.9288-7.6153,2.2964-11.3233,4.4654c-3.6953,2.1611-7.2148,5.187-9.6152,9.395
		c-3.627,6.4687-5.4522,15.1963-6.6885,25.895c-1.1943,10.6773-1.6123,23.2534-1.6143,36.8301c0,3.0376,2.4629,5.5005,5.501,5.5005
		s5.5-2.4629,5.5-5.5005c-0.0019-13.3389,0.4209-25.5938,1.5459-35.6055c1.0781-9.9897,3.044-17.8052,5.3106-21.6694
		c0.3398-0.5967,0.7402-1.1616,1.1884-1.7022l8.4493,31.8213l-35.3301,115.6934l-0.086,0.2861v0.2979
		C113.1533,231.3437,116.5674,234.3711,120.7647,234.3711z M115.1533,227.6172l35.3282-115.6905l0.166-0.5459l-0.1445-0.5507
		l-7.7344-29.1309c4.3965-2.5,12.9941-4.1992,22.8828-4.1992c9.8867,0,18.4844,1.6982,22.8809,4.1982l-7.7325,29.1319
		l-0.1465,0.5507l0.168,0.5459l35.3301,115.6885v0.0059c0,2.6191-2.5156,4.75-5.6094,4.75c-1.6133,0-3.1523-0.5938-4.2207-1.6309
		l-1.3906-1.3496l-1.3926,1.3477c-1.0723,1.039-2.6094,1.6328-4.2207,1.6328c-1.6094,0-3.1465-0.5938-4.2187-1.6328l-1.3907-1.3457
		l-1.3906,1.3457c-1.0742,1.039-2.6113,1.6328-4.2207,1.6328c-1.6133,0-3.1504-0.5938-4.2227-1.6328l-1.3906-1.3457l-1.3906,1.3457
		c-1.0723,1.039-2.6094,1.6328-4.2188,1.6328c-1.6113,0-3.1484-0.5938-4.2207-1.6328l-1.3906-1.3457l-1.3906,1.3457
		c-1.0742,1.039-2.6113,1.6328-4.2207,1.6328c-1.6113,0-3.1484-0.5938-4.2207-1.6328l-1.3906-1.3457l-1.3907,1.3457
		c-1.0722,1.039-2.6093,1.6328-4.2207,1.6328c-1.6093,0-3.1464-0.5938-4.2187-1.6328l-1.3945-1.3477l-1.3907,1.3496
		c-1.0683,1.0371-2.6054,1.6309-4.2168,1.6309c-1.6113,0-3.1484-0.5938-4.2207-1.6328l-1.3906-1.3457l-1.3906,1.3457
		c-1.0723,1.039-2.6094,1.6328-4.2207,1.6328c-1.6114,0-3.1485-0.5938-4.2227-1.6328l-1.3906-1.3457l-1.3906,1.3457
		c-1.0723,1.039-2.6094,1.6328-4.2168,1.6328c-3.0938,0-5.6114-2.1309-5.6114-4.75V227.6172z" id="id_108" style="fill: rgb(255, 255, 255);"></path>
</g>
</svg>