
<svg version="1.1" id="Layer_1" xmlns="http://www.w3.org/2000/svg" xmlns:xlink="http://www.w3.org/1999/xlink" x="0px" y="0px" viewBox="0 0 349.7254 237.1826" enable-background="new 0 0 349.7254 237.1826" xml:space="preserve">
<g>
<path d="M102.091,99.542c-0.0145,0.1526-0.0304,0.3026-0.0445,0.4559h4.6762c0.416,0,0.835,0.0313,1.2764,0.0952
		c3.5846,0.1771,6.9293,1.515,9.7893,3.8788c1.1017-14.3036,3.6478-23.5028,6.3777-29.1807v33.0886v4.7215
		c5.038,10.6172,7.2761,28.3304,6.9775,54.5123c-0.0477,4.1631-3.0446,7.6476-6.9775,8.4666v49.2392
		c0,6.8301,5.5371,12.3633,12.3633,12.3633c6.8281,0,12.3652-5.5332,12.3652-12.3633v-90.2715h4.6348v90.2715
		c0,6.8301,5.5371,12.3633,12.3633,12.3633c6.8281,0,12.3652-5.5332,12.3652-12.3633v-54.6382
		c-5.3245-1.2959-7.23-2.6382-7.7642-3.1066l-1.4717-1.2905l7.1913-22.8162c-1.1328,0.4724-2.378,0.7343-3.6889,0.7343
		l-0.2588-0.0034c-2.5518-0.0723-4.9082-1.1279-6.6504-2.9727c-1.7432-1.8447-2.6631-4.2578-2.5908-6.7944
		c1.1631-40.9756,13.5254-69.5112,14.0508-70.7056c0.9443-2.1431,2.6318-3.8452,4.7666-4.8145
		c2.6152-1.5248,8.197-4.2828,16.4776-5.9546l-26.5259-1.6466c-0.4122-0.068-0.8326-0.1122-1.2642-0.1122h-38.6348
		c-0.1646,0-0.3254,0.0145-0.4874,0.0246c-2.816,0.067-8.2956,0.9735-13.9054,6.2442c-3.0107,2.8289-5.6009,6.5115-7.7798,11.0157
		c2.2293,3.4991,3.5272,7.6467,3.5272,12.0942C113.2491,88.3616,108.7608,95.6139,102.091,99.542z" id="id_101" style="fill: rgb(255, 255, 255);"></path>
<path d="M241.7494,57.4171c0.7116,0.3646,1.3202,0.7009,1.819,0.9916c2.1367,0.9678,3.8262,2.6709,4.7715,4.8149
		c0.1448,0.3292,1.1879,2.7382,2.6446,6.8951c0.2769-0.1849,0.5398-0.3884,0.7912-0.6057c0.2384-3.0184,1.079-5.8682,2.4037-8.4312
		c-0.9617-3.0729-3.7286-5.3886-7.1337-5.6002l-5.2352-0.325c-0.0083,0.3433-0.0068,0.6744-0.0225,1.027
		C241.769,56.6103,241.7599,57.012,241.7494,57.4171z" id="id_102" style="fill: rgb(255, 255, 255);"></path>
<path d="M151.2124,45c12.4278,0,22.5-10.0733,22.5-22.5c0-12.4268-10.0722-22.5-22.5-22.5c-12.4257,0-22.5,10.0732-22.5,22.5
		C128.7124,34.9267,138.7867,45,151.2124,45z M165.2461,31.132c-2.9087,4.7114-8.1038,7.8682-14.0352,7.8682
		s-11.1265-3.1567-14.0352-7.8682H165.2461z" id="id_103" style="fill: rgb(255, 255, 255);"></path>
<path d="M214.3752,226.5483c0,5.5234,4.4785,10,10,10c5.5234,0,10-4.4766,10-10v-54.3734c-5.2608,0.5039-11.8265,0.8445-20,0.886
		V226.5483z" id="id_104" style="fill: rgb(255, 255, 255);"></path>
<path d="M191.0412,226.5483c0,5.5234,4.4805,10,10,10c5.5234,0,10-4.4766,10-10v-53.4874c-8.1736-0.0415-14.7393-0.3821-20-0.886
		V226.5483z" id="id_105" style="fill: rgb(255, 255, 255);"></path>
<path d="M237.1821,79.3322c2.2286,6.9763,5.0496,17.4299,6.9985,30.3585c3.0837-5.5132,6.7289-9.8254,10.9384-12.9152
		c-1.4281-7.0501-3.024-13.1293-4.4984-18.0577c-0.9734,0.7374-2.2565,1.2728-3.4725,1.5837
		C245.3239,80.7677,241.5617,81.264,237.1821,79.3322z" id="id_106" style="fill: rgb(255, 255, 255);"></path>
<path d="M244.8371,71.7288c1.0298,1.0516,2.2992,1.5225,3.9945,1.4827c0.0172-0.0004,0.0309,0.0028,0.0479,0.0026
		c-1.7835-5.3215-3.1209-8.4078-3.2847-8.78c-0.6919-1.5701-1.9324-2.7249-3.395-3.3507c-0.1307-0.0771-0.2899-0.1664-0.4404-0.252
		C241.998,67.3508,243.4909,70.3548,244.8371,71.7288z" id="id_107" style="fill: rgb(255, 255, 255);"></path>
<path d="M179.8213,64.4341c-0.5156,1.1719-12.6504,29.1646-13.7979,69.5835c-0.1025,3.5884,2.7246,6.5801,6.3125,6.6821
		c0.0625,0.0015,0.126,0.0024,0.1885,0.0024c2.1475,0,4.0605-1.0508,5.2457-2.6738l1.2618-4.0034
		c0.7368-24.3529,5.8061-44.0754,9.3118-55.0026c2.2002,7.0519,3.9944,14.8378,3.4604,20.3294
		c-0.3461,3.5684-0.884,6.3926-1.4897,8.9667h-0.0344l-17.8093,56.5c0,0,5.988,5.25,40.238,5.25c8.3846,0,15.066-0.3157,20.39-0.791
		c-0.7654-1.3792-1.1754-2.9762-1.0912-4.6642c0.8813-17.6511,3.2816-32.1445,7.1683-43.4832l-4.0383-12.8116h-0.0365
		c-0.6057-2.574-1.1439-5.3983-1.4908-8.9667c-0.5276-5.4321,1.2246-13.1068,3.3921-20.0977
		c-2.1901-0.996-4.5267-2.5939-6.8541-5.1276c-4.5415-4.9435-5.052-12.2845-5.2581-19.0298
		c-3.5779-0.6283-7.6334-1.043-12.1829-1.043c-15.9897,0-26.0947,5.0245-29.4949,7.032
		C181.7515,61.7118,180.5125,62.8653,179.8213,64.4341z" id="id_108" style="fill: rgb(255, 255, 255);"></path>
<path d="M226.7892,46.8324c0.8928,7.9172-0.744,19.4291,5.0522,25.7378c10.328,11.2413,21.5861,2.8339,17.0447,2.9409
		c-4.5414,0.1069-10.1398-2.6746-9.3961-19.4294c0.4067-9.1616-1.8378-14.8757-5.1617-18.4891
		C232.63,41.2743,230.0219,44.4518,226.7892,46.8324z" id="id_109" style="fill: rgb(255, 255, 255);"></path>
<path d="M234.2084,27.6603c0-11.8741-9.6259-21.5-21.5-21.5c-11.8741,0-21.5,9.6259-21.5,21.5c0,11.8741,9.6259,21.5,21.5,21.5
		C224.5826,49.1603,234.2084,39.5344,234.2084,27.6603z M199.8671,33.7998h25.6877c-2.6618,4.3115-7.4159,7.2003-12.8439,7.2003
		C207.2831,41.0001,202.5289,38.1113,199.8671,33.7998z" id="id_110" style="fill: rgb(255, 255, 255);"></path>
<path d="M276.8149,228.1452c0,4.4912,3.6407,8.1338,8.1328,8.1338c4.4922,0,8.1329-3.6426,8.1329-8.1338v-28.2586
		c-4.4826,0.6114-9.9415,1.1026-16.2657,1.2183V228.1452z" id="id_111" style="fill: rgb(255, 255, 255);"></path>
<path d="M254.9165,228.1452c0,4.4912,3.6426,8.1338,8.1328,8.1338c4.4922,0,8.1348-3.6426,8.1348-8.1338v-27.0403
		c-6.325-0.1156-11.7845-0.6069-16.2676-1.2184V228.1452z" id="id_112" style="fill: rgb(255, 255, 255);"></path>
<path d="M306.9353,151.5566c-1.7668-2.9272-2.8029-6.3428-2.8029-10.0041c0-4.4851,1.5416-8.6086,4.1025-11.9017
		c-1.2318-4.8335-2.6796-9.1898-4.3511-13.0472c-1.1068,0.4168-2.3837,0.6431-3.6246,0.6431
		c-2.5498,0.0005-6.374-0.853-10.1104-4.9199c-3.6484-3.9707-3.8096-9.8687-3.9521-15.0718
		c-0.0086-0.3155-0.0188-0.6071-0.0289-0.9008c-3.6155-1.632-7.5853-2.4548-11.9113-2.4548c-0.0205,0-0.0371,0-0.0566,0.0005
		h-0.4023c-0.0186-0.0005-0.0381-0.0005-0.0566-0.0005c-23.3564,0-36.3887,23.8403-38.7373,70.8633
		c-0.1582,3.1714,2.2852,5.8711,5.4561,6.0293c0.0977,0.0049,0.1953,0.0073,0.292,0.0073c1.0864,0,2.1021-0.3149,2.9746-0.8462
		c-1.2874,9.1871-2.147,17.7076-2.147,24.0836c0,0,12.0684,4.0964,32.4192,4.0964c8.4908,0,15.5332-0.7135,20.8655-1.5446
		c-0.3349-0.8914-0.5221-1.8535-0.5139-2.8607C294.5669,167.1957,302.463,155.8597,306.9353,151.5566z" id="id_113" style="fill: rgb(255, 255, 255);"></path>
<path d="M287.446,89.0579c2.2343,5.098-0.6721,16.1967,4.3959,21.7128c7.3595,8.0103,15.3817,2.0193,12.1456,2.0956
		c-3.236,0.0762-7.2254-1.9058-6.6954-13.8449c0.3512-7.912-2.0703-12.2187-5.2772-14.6183
		C290.7262,86.1681,289.1865,87.738,287.446,89.0579z" id="id_114" style="fill: rgb(255, 255, 255);"></path>
<path d="M273.9988,91.2831c11.0457,0,20-8.9543,20-20s-8.9543-20-20-20c-11.0457,0-20,8.9543-20,20
		S262.9531,91.2831,273.9988,91.2831z M284.3899,79.2998c-2.1535,3.4882-5.9998,5.8253-10.3912,5.8253
		c-4.3914,0-8.2376-2.3372-10.3911-5.8253H284.3899z" id="id_115" style="fill: rgb(255, 255, 255);"></path>
<path d="M68.5555,123.3287c0.1112-0.3692,0.2228-0.7274,0.3347-1.066v1.5726c6.9438,10.6474,11.0775,25.877,12.2964,45.554
		c0.1406,2.2661-0.6094,4.4517-2.1123,6.1533c-1.5039,1.7017-3.5801,2.7158-5.8408,2.856
		c-0.1787,0.0112-0.3574,0.0166-0.5352,0.0166c-0.2041,0-0.4072-0.0073-0.6094-0.022c0.6465,5.8135,0.9736,10.8154,0.9736,14.9194
		v2.1108l-1.9863,0.7129c-0.1157,0.0415-0.8638,0.3042-2.186,0.6793v30.212c0,5.4707,4.4363,9.9081,9.9106,9.9081
		c5.4688,0,9.9063-4.4374,9.9063-9.9081v-51.1008h3.9282v51.1008c0,5.4707,4.4373,9.9081,9.9099,9.9081
		c5.4707,0,9.908-4.4374,9.908-9.9081v-66.0194v-15.474v-23.2738c2.2754,6.8866,4.4731,19.9482,4.1904,44.6873
		c-0.0361,3.1758,2.5088,5.7793,5.6846,5.8154c0.0225,0.0005,0.0439,0.0005,0.0664,0.0005c3.1455,0,5.7129-2.5313,5.749-5.6841
		c0.3682-32.2739-3.248-51.8018-11.0557-59.6992c-2.6631-2.6943-5.8999-4.1624-9.3838-4.2972
		c-0.3193-0.0524-0.6458-0.0853-0.981-0.0853h-32.104c-0.3352,0-0.6616,0.0329-0.9812,0.0853
		c-3.4829,0.1352-6.7185,1.6033-9.3821,4.2972c-1.6243,1.6431-3.0645,3.7973-4.3278,6.4571
		C63.1636,116.4048,66.0395,119.5728,68.5555,123.3287z" id="id_116" style="fill: rgb(255, 255, 255);"></path>
<path d="M110.2491,80.0772c0-10.8123-8.7651-19.5774-19.5773-19.5774c-10.8123,0-19.5774,8.7651-19.5774,19.5774
		c0,10.8123,8.7651,19.5773,19.5774,19.5773C101.484,99.6545,110.2491,90.8895,110.2491,80.0772z M80.0115,86.4165h23.0121
		c-2.3845,3.8624-6.6435,6.4503-11.506,6.4503S82.396,90.2789,80.0115,86.4165z" id="id_117" style="fill: rgb(255, 255, 255);"></path>
<path d="M323.5748,160.9944c-5.9643,0-11.304-2.7048-14.8734-6.946c-3.9438,4.0146-11.1477,14.7438-11.3513,39.7038
		c-0.0225,2.7617,2.1982,5.0181,4.959,5.041c0.0146,0,0.0283,0,0.042,0c2.2065,0,4.062-1.4418,4.7236-3.4324v5.2918
		c0,0.0006,0,0.0012,0,0.0018v27.9976c0,4.1421,3.3574,7.5,7.5,7.5s7.5-3.3579,7.5-7.5v-23.9995h3v23.9995
		c0,4.1421,3.3574,7.5,7.5,7.5s7.5-3.3579,7.5-7.5v-33.0583c0.7251,1.8702,2.5288,3.1994,4.6494,3.1994c0.0137,0,0.0283,0,0.042,0
		c2.7607-0.0229,4.9814-2.2793,4.959-5.041c-0.2029-24.8796-7.361-35.6194-11.3129-39.6644
		C334.8431,158.3057,329.52,160.9944,323.5748,160.9944z" id="id_118" style="fill: rgb(255, 255, 255);"></path>
<path d="M307.1328,141.5527c0,9.0806,7.3613,16.4419,16.4419,16.4419c9.0806,0,16.442-7.3613,16.442-16.4419
		s-7.3613-16.4419-16.442-16.4419C314.4942,125.1108,307.1328,132.4721,307.1328,141.5527z M333.6829,146.71
		c-2.0948,3.3931-5.8363,5.6666-10.1081,5.6666c-4.2719,0-8.0133-2.2735-10.1082-5.6666H333.6829z" id="id_119" style="fill: rgb(255, 255, 255);"></path>
<path d="M41.7918,229.1113c0,4.2891,3.4768,7.7677,7.7667,7.7677c4.29,0,7.7669-3.4786,7.7669-7.7677V199.192
		c-4.2859,0.6165-9.4989,1.111-15.5336,1.2275V229.1113z" id="id_120" style="fill: rgb(255, 255, 255);"></path>
<path d="M20.879,229.1113c0,4.2891,3.4786,7.7677,7.7667,7.7677c4.29,0,7.7687-3.4786,7.7687-7.7677v-28.6917
		c-6.0356-0.1165-11.2492-0.6111-15.5355-1.2277V229.1113z" id="id_121" style="fill: rgb(255, 255, 255);"></path>
<path d="M39.1021,197.4482c19.4351,0,30.9602-4.1359,30.9602-4.1359c0-5.6377-0.6296-12.5632-1.6116-19.938
		c1.0139,1.2439,2.5432,2.0407,4.2476,2.0407c0.1143,0,0.2295-0.0034,0.3447-0.0107c3.0322-0.1875,5.3379-2.7974,5.1494-5.8291
		c-1.979-31.9594-11.4929-47.129-21.1528-54.2037c-0.0078-0.0309-0.0127-0.0502-0.0127-0.0502s-0.5801-0.6976-2.3228-1.5082
		c-5.9524-3.5986-11.7336-4.3771-15.6016-4.3771c-3.7266,0-9.2303,0.7305-14.9515,4.002c-0.468,2.9529-1.4167,5.7615-3.4479,7.9722
		c-3.4067,3.7081-6.8832,4.7417-9.4034,4.8954c-5.5801,8.9763-10.0093,22.6121-11.289,43.2696
		c-0.1885,3.0317,2.1172,5.6416,5.1494,5.8291c1.8279,0.1198,3.5061-0.6855,4.5908-2.0097
		c-0.9805,7.3672-1.6089,14.2852-1.6089,19.9178C8.1421,193.3124,19.667,197.4482,39.1021,197.4482z" id="id_122" style="fill: rgb(255, 255, 255);"></path>
<path d="M19.0101,119.854c4.2057-4.5776,2.9227-12.9956,3.64-18.6428c-1.8221-2.1902-3.2088-4.7503-4.045-7.5472
		c-3.0907,2.4329-5.3879,6.7204-5.0452,14.4406c0.53,11.9391-3.4594,13.9211-6.6954,13.8449
		C3.6284,121.8734,11.6506,127.8643,19.0101,119.854z" id="id_123" style="fill: rgb(255, 255, 255);"></path>
<path d="M39.1025,106.6467c10.5485,0,19.0999-8.5513,19.0999-19.0999S49.651,68.447,39.1025,68.447
		c-10.5486,0-19.0999,8.5513-19.0999,19.0999S28.5539,106.6467,39.1025,106.6467z M49.4935,93.4248
		c-2.1535,3.4882-5.9998,5.8253-10.3911,5.8253c-4.3914,0-8.2377-2.3372-10.3912-5.8253H49.4935z" id="id_124" style="fill: rgb(255, 255, 255);"></path>
</g>
</svg>