<?xml version="1.0" encoding="UTF-8" standalone="no"?>
<svg
   id="Layer_1"
   version="1.1"
   xml:space="preserve"
   viewBox="0 0 395.833 385"
   enable-background="new 0 0 395.833 385"
   y="0px"
   x="0px"
   sodipodi:docname="logosg.svg"
   inkscape:version="1.2 (dc2aedaf03, 2022-05-15)"
   xmlns:inkscape="http://www.inkscape.org/namespaces/inkscape"
   xmlns:sodipodi="http://sodipodi.sourceforge.net/DTD/sodipodi-0.dtd"
   xmlns="http://www.w3.org/2000/svg"
   xmlns:svg="http://www.w3.org/2000/svg"
   xmlns:rdf="http://www.w3.org/1999/02/22-rdf-syntax-ns#"
   xmlns:cc="http://creativecommons.org/ns#"
   xmlns:dc="http://purl.org/dc/elements/1.1/"><defs
   id="defs386"><rect
     x="93.994141"
     y="121.81641"
     width="202.27539"
     height="75.947268"
     id="rect448" /><rect
     x="57.900391"
     y="94.746094"
     width="291.00586"
     height="212.05078"
     id="rect442" /><rect
     x="93.994141"
     y="121.81641"
     width="202.27539"
     height="75.947266"
     id="rect448-8" /></defs><sodipodi:namedview
   id="namedview384"
   pagecolor="#ffffff"
   bordercolor="#000000"
   borderopacity="0.25"
   inkscape:showpageshadow="2"
   inkscape:pageopacity="0.0"
   inkscape:pagecheckerboard="0"
   inkscape:deskcolor="#d1d1d1"
   showgrid="false"
   inkscape:zoom="1.3298701"
   inkscape:cx="197.76367"
   inkscape:cy="192.5"
   inkscape:window-width="1366"
   inkscape:window-height="715"
   inkscape:window-x="-8"
   inkscape:window-y="-8"
   inkscape:window-maximized="1"
   inkscape:current-layer="Layer_1" />
	<path
   d="m 145.1169,343.03511 c -10.07146,6.96288 -17.5771,2.28113 -16.67928,-10.40269 l 4.49492,-63.53707 c 0.89709,-12.68382 -6.0404,-29.5853 -15.41753,-37.55808 L 70.546954,191.604 c -9.37713,-7.97277 -7.48449,-16.9647 4.20611,-19.98205 l 58.556546,-15.11451 c 11.6906,-3.01812 24.75381,-15.21472 29.02993,-27.10528 L 183.7559,69.846086 c 4.27612,-11.889782 12.95162,-12.76631 19.27938,-1.94578 l 31.69567,54.193604 c 6.32776,10.81976 21.33904,20.18249 33.35857,20.80693 l 60.20486,3.12605 c 12.01953,0.62444 15.48828,9.07441 7.7084,18.77865 l -38.96793,48.60912 c -7.77987,9.70424 -11.56515,27.68809 -8.41294,39.9641 l 15.79168,61.48721 c 3.15221,12.27601 -3.37903,18.3747 -14.5146,13.55264 l -55.77922,-24.15192 c -11.1363,-4.82206 -28.48731,-3.06977 -38.55804,3.89311 l -50.43389,34.87608 z"
   fill="#f15a29"
   id="path323"
   style="stroke-width:0.749838" />
	






<ellipse
   rx="12.128"
   ry="11"
   stroke="#F15A29"
   cy="267.5"
   cx="167.81"
   stroke-miterlimit="10"
   fill="#EEBD21"
   id="ellipse339" />
<ellipse
   rx="12.128"
   ry="11"
   stroke="#F15A29"
   cy="262.67"
   cx="245.7"
   stroke-miterlimit="10"
   fill="#EEBD21"
   id="ellipse341" />

<ellipse
   rx="12.128"
   ry="11"
   stroke="#F15A29"
   cy="129"
   cx="197.86"
   stroke-miterlimit="10"
   fill="#EEBD21"
   id="ellipse345" />

<path
   stroke="#F15A29"
   stroke-miterlimit="10"
   d="m162.3 289.5c0 3.311-2.965 6-6.615 6-3.653 0-6.615-2.689-6.615-6 0-3.313 2.962-6 6.615-6 3.65 0 6.62 2.69 6.62 6z"
   fill="#EEBD21"
   id="path349" />
<path
   stroke="#F15A29"
   stroke-miterlimit="10"
   d="m272.49 283.5c0 3.311-2.965 6-6.615 6-3.653 0-6.615-2.689-6.615-6 0-3.313 2.962-6 6.615-6 3.65 0 6.61 2.69 6.61 6z"
   fill="#EEBD21"
   id="path351" />
<path
   stroke="#F15A29"
   stroke-miterlimit="10"
   d="m203.76 109.83c0 3.311-2.965 6-6.615 6-3.653 0-6.615-2.689-6.615-6 0-3.313 2.962-6 6.615-6 3.66 0 6.62 2.69 6.62 6z"
   fill="#EEBD21"
   id="path353" />


<ellipse
   rx="4.41"
   ry="4"
   stroke="#F15A29"
   cy="92"
   cx="194.94"
   stroke-miterlimit="10"
   fill="#EEBD21"
   id="ellipse359" />
<ellipse
   rx="4.41"
   ry="4"
   stroke="#F15A29"
   cy="309.67"
   cx="144.66"
   stroke-miterlimit="10"
   fill="#EEBD21"
   id="ellipse361" />
<ellipse
   rx="4.41"
   ry="4"
   stroke="#F15A29"
   cy="298.17"
   cx="278.01"
   stroke-miterlimit="10"
   fill="#EEBD21"
   id="ellipse363" />


<ellipse
   rx="2.205"
   ry="2"
   stroke="#F15A29"
   cy="322.5"
   cx="134.18"
   stroke-miterlimit="10"
   fill="#EEBD21"
   id="ellipse369" />
<ellipse
   rx="2.205"
   ry="2"
   stroke="#F15A29"
   cy="311.67"
   cx="291.24"
   stroke-miterlimit="10"
   fill="#EEBD21"
   id="ellipse371" />
<ellipse
   rx="2.205"
   ry="2"
   stroke="#F15A29"
   cy="75"
   cx="194.94"
   stroke-miterlimit="10"
   fill="#EEBD21"
   id="ellipse373" />

	
	
<metadata
   id="metadata381"><rdf:RDF><cc:Work><dc:format>image/svg+xml</dc:format><dc:type
         rdf:resource="http://purl.org/dc/dcmitype/StillImage" /><cc:license
         rdf:resource="http://creativecommons.org/licenses/publicdomain/" /><dc:publisher><cc:Agent
           rdf:about="http://openclipart.org/"><dc:title>Openclipart</dc:title></cc:Agent></dc:publisher><dc:title>Starfish</dc:title><dc:date>2013-05-09T07:18:20</dc:date><dc:description>starfish, sea, orange, yellow</dc:description><dc:source>https://openclipart.org/detail/177911/starfish-by-nicansou-177911</dc:source><dc:creator><cc:Agent><dc:title>Nicansou</dc:title></cc:Agent></dc:creator><dc:subject><rdf:Bag><rdf:li>orange</rdf:li><rdf:li>sea</rdf:li><rdf:li>starfish</rdf:li><rdf:li>yellow</rdf:li></rdf:Bag></dc:subject></cc:Work><cc:License
       rdf:about="http://creativecommons.org/licenses/publicdomain/"><cc:permits
         rdf:resource="http://creativecommons.org/ns#Reproduction" /><cc:permits
         rdf:resource="http://creativecommons.org/ns#Distribution" /><cc:permits
         rdf:resource="http://creativecommons.org/ns#DerivativeWorks" /></cc:License></rdf:RDF></metadata><text
   xml:space="preserve"
   id="text440"
   style="font-size:66.6667px;white-space:pre;shape-inside:url(#rect442);display:inline;fill:#000000" /><text
   xml:space="preserve"
   id="text446"
   style="font-style:normal;font-variant:normal;font-weight:normal;font-stretch:normal;font-size:64px;font-family:'Indie Flower';-inkscape-font-specification:'Indie Flower';white-space:pre;shape-inside:url(#rect448);shape-padding:0;display:inline;fill:#ffffff"
   transform="matrix(1.2151471,0,0,1.2714416,7.3307696,-12.333214)"><tspan
     x="93.994141"
     y="172.3974"
     id="tspan965">Sand
</tspan></text><text
   xml:space="preserve"
   id="text446-3"
   style="font-style:normal;font-variant:normal;font-weight:normal;font-stretch:normal;font-size:31.8645px;font-family:'Indie Flower';-inkscape-font-specification:'Indie Flower';white-space:pre;shape-inside:url(#rect448-8);shape-padding:0;display:inline;fill:#ffffff"
   transform="matrix(1.3229907,0,0,1.3412513,0.0146945,36.110329)"><tspan
     x="93.994141"
     y="146.99981"
     id="tspan967">Greetings</tspan></text></svg>
